<?xml version="1.0"?>
<svg xmlns="http://www.w3.org/2000/svg" height="512px" viewBox="-88 0 480 480" width="512px" class=""><g><path d="m216 160c26.507812 0 48 21.492188 48 48 0 32-48 80-48 80s-48-48-48-80c0-26.507812 21.492188-48 48-48zm16 48c0-8.835938-7.164062-16-16-16s-16 7.164062-16 16 7.164062 16 16 16c8.824219-.027344 15.972656-7.175781 16-16zm0 0" fill="#bddbff" data-original="#BDDBFF" class="active-path" style="fill:#ADF7F1" data-old_color="#BDDBFF"/><path d="m216 8v24c-.027344 8.824219-7.175781 15.972656-16 16h-96c-8.824219-.027344-15.972656-7.175781-16-16v-24zm0 0" fill="#bddbff" data-original="#BDDBFF" class="active-path" style="fill:#ADF7F1" data-old_color="#BDDBFF"/><g fill="#3d9ae2"><path d="m264 0h-224c-22.082031.0273438-39.9726562 17.917969-40 40v400c.0273438 22.082031 17.917969 39.972656 40 40h224c22.082031-.027344 39.972656-17.917969 40-40v-400c-.027344-22.082031-17.917969-39.9726562-40-40zm-168 16h112v16c0 4.417969-3.582031 8-8 8h-96c-4.417969 0-8-3.582031-8-8zm192 424c0 13.253906-10.746094 24-24 24h-224c-13.253906 0-24-10.746094-24-24v-400c0-13.253906 10.746094-24 24-24h40v16c0 13.253906 10.746094 24 24 24h96c13.253906 0 24-10.746094 24-24v-16h40c13.253906 0 24 10.746094 24 24zm0 0" data-original="#000000" class="" style="fill:#1C94A5" data-old_color="#000000"/><path d="m96 88h16v16h-16zm0 0" data-original="#000000" class="" style="fill:#1C94A5" data-old_color="#000000"/><path d="m128 88h16v16h-16zm0 0" data-original="#000000" class="" style="fill:#1C94A5" data-old_color="#000000"/><path d="m160 88h16v16h-16zm0 0" data-original="#000000" class="" style="fill:#1C94A5" data-old_color="#000000"/><path d="m192 88h16v16h-16zm0 0" data-original="#000000" class="" style="fill:#1C94A5" data-old_color="#000000"/><path d="m216 152c-30.914062.035156-55.964844 25.085938-56 56 0 34.328125 45.191406 80.503906 50.34375 85.65625 3.125 3.121094 8.1875 3.121094 11.3125 0 5.152344-5.152344 50.34375-51.328125 50.34375-85.65625-.035156-30.914062-25.085938-55.964844-56-56zm0 124.40625c-14.824219-16.148438-40-47.878906-40-68.40625 0-22.089844 17.910156-40 40-40s40 17.910156 40 40c0 20.527344-25.175781 52.257812-40 68.40625zm0 0" data-original="#000000" class="" style="fill:#1C94A5" data-old_color="#000000"/><path d="m216 184c-13.253906 0-24 10.746094-24 24s10.746094 24 24 24 24-10.746094 24-24-10.746094-24-24-24zm0 32c-4.417969 0-8-3.582031-8-8s3.582031-8 8-8 8 3.582031 8 8-3.582031 8-8 8zm0 0" data-original="#000000" class="" style="fill:#1C94A5" data-old_color="#000000"/><path d="m205.65625 357.65625 10.34375-10.34375 10.34375 10.34375 11.3125-11.3125-10.34375-10.34375 10.34375-10.34375-11.3125-11.3125-10.34375 10.34375-10.34375-10.34375-11.3125 11.3125 10.34375 10.34375-10.34375 10.34375zm0 0" data-original="#000000" class="" style="fill:#1C94A5" data-old_color="#000000"/><path d="m96 368v-112c0-4.417969-3.582031-8-8-8h-40v16h32v96h-32v16h40c4.417969 0 8-3.582031 8-8zm0 0" data-original="#000000" class="" style="fill:#1C94A5" data-old_color="#000000"/><path d="m240 360h16v16h-16zm0 0" data-original="#000000" class="" style="fill:#1C94A5" data-old_color="#000000"/><path d="m48 400h208v16h-208zm0 0" data-original="#000000" class="" style="fill:#1C94A5" data-old_color="#000000"/><path d="m128 376h64v-16h-56v-200h-16v208c0 4.417969 3.582031 8 8 8zm0 0" data-original="#000000" class="" style="fill:#1C94A5" data-old_color="#000000"/><path d="m96 216v-56h-16v48h-32v16h40c4.417969 0 8-3.582031 8-8zm0 0" data-original="#000000" class="" style="fill:#1C94A5" data-old_color="#000000"/></g></g> </svg>
